<svg width="150" height="70" viewBox="0 0 150 70" fill="none" xmlns="http://www.w3.org/2000/svg">
<path d="M50 65H30V55H50V65Z" fill="white"/>
<path d="M60 55H50V45H30V25H40V35H50V25H40V15H60V55Z" fill="white"/>
<path d="M80 45H70V25H80V45Z" fill="white"/>
<path d="M100 45H90V35H100V45Z" fill="white"/>
<path d="M120 45H110V35H120V45Z" fill="white"/>
<path d="M110 35H100V25H110V35Z" fill="white"/>
<path d="M100 25H90V15H100V25Z" fill="white"/>
<path d="M120 25H110V15H120V25Z" fill="white"/>
<path d="M80 15H70V5H80V15Z" fill="white"/>
</svg>
